<svg version="1.1" xmlns="http://www.w3.org/2000/svg" xmlns:xlink="http://www.w3.org/1999/xlink" x="0px" y="0px" viewBox="0 0 256 256" enable-background="new 0 0 256 256" xml:space="preserve">
  <g>
    <path fill="#000000" d="M128,10C62.8,10,10,62.8,10,128c0,65.2,52.8,118,118,118c65.2,0,118-52.8,118-118C246,62.8,193.2,10,128,10z M174.6,188.4c-2.3,0-4-0.9-5.6-1.9c-16-9.7-35.7-14.7-57.1-14.7c-10.9,0-22.7,1.3-35,3.8l-1.5,0.4c-1.6,0.4-3.2,0.8-4.4,0.8c-5,0-8.9-3.9-8.9-8.8c0-5,2.8-8.5,7.5-9.4c14.7-3.3,28.5-5,42.3-5c24.9,0,47.1,5.8,66.1,17.1c3.3,1.9,5.3,4.1,5.3,9C183.4,184.4,179.5,188.4,174.6,188.4L174.6,188.4z M186.9,154c-2.8,0-4.6-1.1-6.2-2c-28.7-17.1-71.5-22.7-106.8-13.3c-0.6,0.2-1.1,0.3-1.6,0.5c-1.3,0.4-2.6,0.8-4.3,0.8c-5.8,0-10.5-4.7-10.5-10.6c0-5.6,2.9-9.5,8.2-11.1c13.6-3.7,26.3-6.2,44.7-6.2c29.7,0,58.4,7.4,81,20.9c4.1,2.3,6,5.6,6,10.3C197.4,149.3,192.7,154,186.9,154L186.9,154z M200.8,114.9c-2.6,0-4.2-0.6-6.6-1.9c-19.5-11.7-49.9-18.7-81.4-18.7c-16.4,0-31.3,1.8-44.3,5.3c-0.4,0.1-0.9,0.2-1.3,0.4c-1.4,0.4-3.1,0.9-4.9,0.9c-6.9,0-12.3-5.5-12.3-12.4c0-6.1,3.4-10.7,9.1-12.4c15.7-4.6,33.8-7,53.7-7c35.9,0,70.1,8,93.7,21.9c4.5,2.5,6.6,6.4,6.6,11.7C213.1,109.5,207.7,114.9,200.8,114.9L200.8,114.9z"/>
  </g>
</svg>
